<mxfile host="app.diagrams.net" modified="2023-09-29T03:59:27.003Z" agent="Mozilla/5.0 (Windows NT 10.0; Win64; x64) AppleWebKit/537.36 (KHTML, like Gecko) Chrome/117.0.0.0 Safari/537.36" version="21.7.2" etag="Y409oYtkWIZkWGN1Q058" type="github">
  <diagram name="Page-1" id="oFypD849Ah0VRW80IUby">
    <mxGraphModel>
      <root>
        <mxCell id="0" />
        <mxCell id="1" parent="0" />
      </root>
    </mxGraphModel>
  </diagram>
</mxfile>
